HIERARCHY
ROOT root
{
	OFFSET 0.000000 0.000000 0.000000
	CHANNELS 6 Xposition Yposition Zposition Zrotation Yrotation Xrotation
	JOINT lhip
	{
		OFFSET 0.058581 -0.082280 -0.017664
		CHANNELS 3 Zrotation Yrotation Xrotation
		JOINT lknee
		{
			OFFSET 0.043451 -0.386469 0.008037
			CHANNELS 3 Zrotation Yrotation Xrotation
			JOINT lankle
			{
				OFFSET -0.014790 -0.426874 -0.037428
				CHANNELS 3 Zrotation Yrotation Xrotation
				JOINT ltoe
				{
					OFFSET 0.041054 -0.060286 0.122042
					CHANNELS 3 Zrotation Yrotation Xrotation
					End Site
					{
						OFFSET 0.000000 0.000000 0.000000
					}
				}
			}
		}
	}
	JOINT rhip
	{
		OFFSET -0.060310 -0.090513 -0.013543
		CHANNELS 3 Zrotation Yrotation Xrotation
		JOINT rknee
		{
			OFFSET -0.043257 -0.383688 -0.004843
			CHANNELS 3 Zrotation Yrotation Xrotation
			JOINT rankle
			{
				OFFSET 0.019056 -0.420046 -0.034562
				CHANNELS 3 Zrotation Yrotation Xrotation
				JOINT rtoe
				{
					OFFSET -0.034840 -0.062106 0.130323
					CHANNELS 3 Zrotation Yrotation Xrotation
					End Site
					{
						OFFSET 0.000000 0.000000 0.000000
					}
				}
			}
		}
	}
	JOINT lowerback
	{
		OFFSET 0.004439 0.124404 -0.038385
		CHANNELS 3 Zrotation Yrotation Xrotation
		JOINT upperback
		{
			OFFSET 0.004488 0.137956 0.026820
			CHANNELS 3 Zrotation Yrotation Xrotation
			JOINT chest
			{
				OFFSET -0.002265 0.056032 0.002855
				CHANNELS 3 Zrotation Yrotation Xrotation
				JOINT lowerneck
				{
					OFFSET -0.013390 0.211636 -0.033468
					CHANNELS 3 Zrotation Yrotation Xrotation
					JOINT upperneck
					{
						OFFSET 0.010113 0.088937 0.050410
						CHANNELS 3 Zrotation Yrotation Xrotation
						End Site
						{
							OFFSET 0.000000 0.000000 0.000000
						}
					}
				}
				JOINT lclavicle
				{
					OFFSET 0.071702 0.114000 -0.018898
					CHANNELS 3 Zrotation Yrotation Xrotation
					JOINT lshoulder
					{
						OFFSET 0.122921 0.045205 -0.019046
						CHANNELS 3 Zrotation Yrotation Xrotation
						JOINT lelbow
						{
							OFFSET 0.255332 -0.015649 -0.022946
							CHANNELS 3 Zrotation Yrotation Xrotation
							JOINT lwrist
							{
								OFFSET 0.265709 0.012698 -0.007375
								CHANNELS 3 Zrotation Yrotation Xrotation
								End Site
								{
									OFFSET 0.000000 0.000000 0.000000
								}
							}
						}
					}
				}
				JOINT rclavicle
				{
					OFFSET -0.082954 0.112472 -0.023707
					CHANNELS 3 Zrotation Yrotation Xrotation
					JOINT rshoulder
					{
						OFFSET -0.113228 0.046853 -0.008472
						CHANNELS 3 Zrotation Yrotation Xrotation
						JOINT relbow
						{
							OFFSET -0.260127 -0.014369 -0.031269
							CHANNELS 3 Zrotation Yrotation Xrotation
							JOINT rwrist
							{
								OFFSET -0.269108 0.006794 -0.006027
								CHANNELS 3 Zrotation Yrotation Xrotation
								End Site
								{
									OFFSET 0.000000 0.000000 0.000000
								}
							}
						}
					}
				}
			}
		}
	}
}
MOTION
Frames: 16
Frame Time: 0.033333
1.153667 1.083189 0.984592 -85.421560 -3.666464 87.517572 10.285787 -10.091386 -41.526135 -9.638095 2.283084 56.369480 2.568101 7.168550 -24.645952 0.000000 -0.000000 0.000000 -7.518817 -3.603076 2.204287 0.999687 4.156172 14.401053 2.488466 -5.143896 -20.132694 0.000000 -0.000000 0.000000 -2.300038 11.177597 14.813668 3.204696 -3.462616 6.398103 0.133292 0.984657 6.389889 4.999939 4.409967 8.159156 4.622654 -3.027462 19.926851 -21.700103 1.960223 3.740451 -62.752926 -7.283490 8.042310 12.175824 -34.308156 6.824152 3.100198 -4.006451 -13.821019 22.403742 0.079850 4.212590 58.361787 7.252909 8.071777 -21.290527 34.904469 -5.204298 5.520704 1.878210 -12.051000 
1.143264 1.070448 0.985272 -86.108529 -3.409322 87.627310 9.582182 -9.918755 -40.652003 -9.456743 2.651388 56.869150 3.043267 7.796714 -26.549732 0.000000 -0.000000 0.000000 -8.095067 -3.638349 3.380518 0.847009 5.029643 13.011717 3.177079 -5.550928 -19.134137 0.000000 -0.000000 0.000000 -2.535615 11.837793 15.276845 3.045878 -3.219333 6.611736 0.159624 1.059011 6.303653 5.135960 4.163550 7.787429 4.900445 -2.937371 19.611833 -21.508837 1.600328 3.773755 -62.453342 -7.543331 7.845188 12.088097 -33.934718 6.872145 3.551302 -4.237030 -13.875740 22.056128 0.353752 4.009704 58.867246 7.000353 8.436415 -21.475897 34.384907 -5.220183 5.441881 1.313431 -12.255659 
1.132588 1.056557 0.986567 -87.163326 -3.526561 88.373185 8.875593 -10.277613 -40.326875 -9.417409 3.543131 57.027700 3.518793 8.789651 -27.978034 0.000000 -0.000000 0.000000 -9.183995 -3.239778 3.120806 0.625823 5.312744 12.974038 4.256461 -5.101689 -17.541081 0.000000 -0.000000 0.000000 -3.401836 12.500865 15.074825 2.880574 -3.029182 6.233394 0.187316 1.116913 6.389481 5.335927 3.771917 8.069036 5.078960 -3.127972 19.213146 -21.314709 1.800055 3.957660 -62.241668 -7.648054 7.691454 11.938519 -33.618789 6.661326 3.812656 -4.194581 -13.301014 22.056200 -0.131733 3.933575 58.994924 6.772025 8.714965 -21.338188 34.748408 -4.854375 6.476911 1.419980 -11.764768 
1.121677 1.041613 0.990387 -87.541886 -3.345554 88.988374 8.110471 -10.941773 -39.990335 -9.244398 4.130256 56.900480 4.252927 9.717534 -28.587544 0.000000 -0.000000 0.000000 -10.041583 -3.137183 3.241723 0.402619 5.478327 12.577670 5.496800 -4.710220 -14.356802 0.000000 -0.000000 0.000000 -3.713175 12.469639 14.939497 2.680030 -3.141978 5.869245 0.054038 1.124412 6.693747 5.354302 3.899075 8.186793 5.047345 -2.825656 18.984467 -21.265509 2.002248 3.923064 -62.013594 -7.660486 7.825532 11.952799 -33.194996 5.972745 3.889919 -4.411876 -13.125031 22.244766 -0.382645 3.862340 58.962282 6.145887 9.489934 -21.553919 35.050159 -5.467307 5.866859 1.594565 -11.682280 
1.111183 1.026397 0.997641 -88.598358 -2.801077 89.367913 7.246179 -10.694912 -38.468833 -8.915475 4.212865 55.590679 4.598088 10.158055 -29.182339 0.000000 -0.000000 0.000000 -10.681601 -3.004197 2.773569 0.475002 5.955908 13.012386 6.923294 -4.126186 -9.909338 0.000000 -0.000000 0.000000 -3.692179 12.504793 14.633990 2.549630 -2.901653 6.232831 -0.013034 1.065201 6.713782 5.325426 3.393805 7.920135 5.459379 -2.526140 18.469790 -21.504973 1.777732 3.781640 -62.114034 -7.776942 7.793501 12.274413 -31.970820 5.206959 3.837928 -4.382682 -12.617768 22.277370 -0.497444 3.709556 59.094417 5.741049 9.824455 -21.641085 34.205761 -6.036254 7.044951 1.220541 -12.041931 
1.101686 1.011317 1.008562 -89.789783 -2.050223 89.772641 6.478732 -10.260543 -36.528739 -8.697075 3.901262 53.446734 5.087252 10.872482 -28.993867 0.000000 -0.000000 0.000000 -10.829915 -2.849105 1.050545 0.392439 6.297267 15.188632 7.613827 -3.245435 -5.145085 0.000000 -0.000000 0.000000 -3.679288 12.110506 14.339963 2.538850 -2.583510 6.251045 0.063502 0.953542 6.815906 5.336722 2.945316 8.361757 5.350093 -2.116848 18.103731 -21.482945 1.814694 3.922234 -62.655146 -7.985698 7.599376 12.349527 -30.953190 4.593294 4.093603 -4.229630 -12.583115 22.166993 -0.748445 3.882999 59.187519 5.609888 9.673556 -21.291607 33.828243 -6.586690 4.930279 1.186665 -11.192760 
1.091717 0.997993 1.021826 -90.551069 -1.022216 89.907666 5.936794 -9.293897 -33.937268 -8.571278 3.253315 50.499832 5.451098 10.968514 -28.516808 0.000000 -0.000000 0.000000 -10.128156 -2.884028 -0.587603 0.101745 6.760063 17.528712 7.980293 -3.137890 -0.926670 0.000000 -0.000000 0.000000 -3.714030 11.148787 14.533924 2.679138 -2.429006 5.736869 0.380903 0.790689 6.836318 4.854968 2.552008 9.078848 5.791236 -1.128254 17.958091 -21.511724 2.036415 4.357949 -62.966459 -7.717477 7.266636 12.135908 -30.910864 4.664513 3.717292 -4.218436 -12.244187 22.030988 -1.008850 4.271322 59.445393 5.260308 9.495118 -20.957035 33.198387 -6.712364 5.543937 1.121612 -10.770907 
1.084679 0.985720 1.035007 -91.810400 -0.405905 90.261750 5.342176 -8.191251 -31.506218 -8.582701 2.842821 46.914922 5.747722 11.091780 -27.640242 0.000000 -0.000000 0.000000 -9.173082 -1.930685 -4.384469 -0.181715 6.896244 22.905490 6.675074 -4.574706 -0.047647 0.000000 -0.000000 0.000000 -4.245402 10.251632 13.796454 2.822837 -2.099128 6.742595 0.431202 0.662143 6.708006 5.027579 3.348359 8.650826 5.506891 -0.606489 17.997996 -21.157086 2.066198 4.335126 -62.985123 -7.632395 7.262303 11.646567 -31.491471 4.895465 3.313102 -3.975579 -12.465537 21.933318 -1.015838 4.327440 60.055758 4.901080 9.804611 -21.304760 32.615927 -7.455518 6.158948 1.166841 -10.657071 
1.077070 0.975245 1.048687 -91.667819 0.316820 89.726646 4.406795 -7.342275 -28.061105 -8.589071 1.238261 43.023109 5.717387 11.127217 -26.533819 0.000000 -0.000000 0.000000 -7.540770 -1.132672 -6.883711 -0.774763 5.467086 29.093887 4.728616 -6.975465 -4.611511 0.000000 -0.000000 0.000000 -4.356822 8.815619 13.817913 3.064747 -2.276634 8.369547 0.431046 0.380462 6.167619 5.434311 3.734117 8.227301 5.226171 -0.907226 17.644938 -20.802357 1.453380 4.274229 -62.631783 -7.270958 7.624712 11.324948 -32.388835 5.418576 3.815306 -4.240814 -12.961695 21.823808 -0.723725 3.969955 60.701174 3.656462 9.872593 -21.581808 32.532424 -8.138158 6.883895 1.046640 -11.123129 
1.069413 0.965380 1.062225 -91.330680 0.686930 89.332219 3.223627 -7.107600 -24.679562 -8.485257 -0.578577 38.970853 5.284238 11.623728 -25.254409 0.000000 -0.000000 0.000000 -6.484562 -0.353688 -9.203706 -1.354764 2.998731 34.781140 4.230116 -8.414831 -8.697396 0.000000 -0.000000 0.000000 -4.342585 7.194044 15.143922 2.769441 -2.419595 6.619069 0.464042 -0.023027 6.589580 5.679985 4.062142 8.963712 5.177487 -0.568198 17.514918 -20.793144 1.511527 4.665997 -61.874330 -7.011111 7.617673 11.114605 -33.306857 5.514209 3.788017 -4.454851 -12.581355 21.784929 -1.062924 3.929147 61.282338 2.387316 9.771995 -20.501382 31.772391 -7.066559 6.261290 1.216657 -10.345922 
1.063450 0.956997 1.074902 -91.022671 1.008349 89.172573 2.298204 -6.736482 -21.683539 -8.229116 -2.132217 35.054143 5.113321 11.759149 -24.231265 0.000000 -0.000000 0.000000 -5.379534 0.458690 -11.761432 -1.616344 0.685455 39.972497 4.026720 -9.373701 -11.181526 0.000000 -0.000000 0.000000 -4.439554 5.927417 15.315206 2.788584 -2.519778 6.466944 0.420249 -0.498221 6.454225 5.956238 4.005869 9.448566 4.898475 -0.899729 17.795575 -20.923332 1.547579 4.728637 -61.283283 -7.322681 7.607091 11.294427 -33.706822 5.077162 3.298418 -4.551009 -12.226733 21.669009 -1.517509 4.061103 61.788474 1.467989 9.754935 -19.694339 30.812087 -5.928904 6.219136 1.349106 -9.753714 
1.056191 0.950006 1.086523 -90.441399 1.657596 88.860337 1.798544 -5.988332 -18.557741 -7.964132 -4.206067 31.249242 4.914169 11.741584 -22.979877 0.000000 -0.000000 0.000000 -3.450070 1.112752 -13.511311 -1.453280 -0.544080 43.684663 3.488157 -10.133445 -13.334485 0.000000 -0.000000 0.000000 -4.348554 4.481114 15.157296 2.916575 -2.582116 6.558010 0.468412 -0.688037 6.202345 6.051343 3.760647 10.364439 5.160768 -0.969751 17.473916 -21.110609 1.553498 4.833108 -61.077723 -7.730637 7.514437 11.873806 -33.971216 4.088609 3.319487 -4.219788 -12.438295 21.405790 -1.941705 4.414763 62.423548 0.312660 9.262942 -19.377040 29.895426 -5.332230 6.478191 1.427941 -10.330115 
1.049846 0.944117 1.097053 -90.810793 2.313491 88.000426 1.517951 -4.458150 -14.974397 -7.938879 -6.387237 27.652997 5.187083 12.258335 -21.837191 0.000000 -0.000000 0.000000 -1.149283 1.621641 -14.704946 -1.453320 -0.804006 46.146415 2.984384 -9.843523 -15.371745 0.000000 -0.000000 0.000000 -4.179220 3.472734 15.864083 3.033142 -1.906054 5.188500 0.317027 -0.870929 7.576117 6.890928 4.108570 10.816502 4.437012 -1.719833 16.414080 -21.606856 2.901256 4.121143 -60.235711 -9.088678 10.176789 12.076552 -34.278125 3.705087 5.737969 -2.758772 -16.176231 21.893340 -3.617041 3.782857 62.309151 0.322792 11.139221 -19.069196 27.655042 -3.584944 5.979141 2.109382 -11.034931 
1.043384 0.938493 1.105486 -91.082121 2.754138 87.700015 1.253006 -3.967837 -12.113995 -7.389400 -7.567047 24.120241 4.887706 12.730759 -20.918160 0.000000 -0.000000 0.000000 0.666199 2.829098 -15.736091 -1.037245 -1.311631 46.561522 3.006753 -10.047664 -17.073886 0.000000 -0.000000 0.000000 -4.193081 2.550193 15.632956 3.026852 -1.626762 4.962608 0.384540 -0.995152 7.377252 6.944208 4.129512 11.630030 4.398078 -1.691963 16.599880 -21.935659 3.393028 4.150447 -60.061168 -9.254532 10.056993 12.496858 -35.274005 2.016105 6.134870 -2.266216 -16.503409 21.810029 -4.282604 3.934049 62.399549 -0.685455 10.906768 -18.410221 26.611474 -2.915903 5.926797 1.830031 -10.717709 
1.036721 0.933142 1.112387 -91.605310 3.061299 87.307476 0.957900 -3.343078 -9.340429 -6.725854 -8.305003 20.920634 4.538739 12.974713 -20.285629 0.000000 -0.000000 0.000000 2.417793 3.959993 -15.998133 -0.807277 -1.223808 45.201690 2.800940 -9.763429 -18.391087 0.000000 -0.000000 0.000000 -4.223675 1.877019 15.062151 2.960583 -1.453058 5.244820 0.366169 -1.079729 7.311296 7.061890 4.502761 11.895255 4.538022 -1.564224 16.358892 -21.989615 3.674598 3.838675 -60.234448 -9.426209 10.331321 12.970076 -35.570106 0.708131 6.682186 -2.423704 -17.112172 21.558197 -4.726288 3.824592 62.854803 -1.403257 10.876618 -17.957860 25.003143 -2.316148 6.121769 1.435630 -10.439276 
1.031309 0.927484 1.117654 -91.635929 3.379796 86.963520 0.694346 -3.196982 -7.139008 -6.225122 -9.034903 18.423591 4.258698 13.079290 -19.729165 0.000000 -0.000000 0.000000 3.804876 4.882003 -15.741145 -0.320439 -1.007021 42.259951 2.648043 -9.298556 -18.782877 0.000000 -0.000000 0.000000 -4.047681 1.102231 14.365292 2.911142 -1.657490 5.774154 0.294036 -1.137066 7.206583 7.065633 5.062877 12.138903 4.470369 -1.324312 16.521993 -21.931873 3.594291 3.810019 -60.591181 -9.688196 10.601617 13.499346 -35.769111 0.054779 6.275436 -2.305104 -17.078438 21.204854 -4.900755 3.889913 63.371149 -1.749144 10.771604 -17.885152 23.724595 -2.203317 6.102270 1.439480 -10.824698 
